<svg width="44" height="44" viewBox="0 0 44 44" fill="none" xmlns="http://www.w3.org/2000/svg">
<rect width="44" height="44" fill="#FDD989"/>
<path d="M20.4994 8.02739C19.282 8.24825 18.5315 8.48677 17.706 8.92849C15.3045 10.2006 13.6618 12.4799 13.1198 15.298C12.9197 16.3405 12.9781 18.3282 13.2366 19.3264C13.47 20.2187 14.012 21.4467 14.554 22.2948C15.513 23.7878 15.9299 25.0246 16.1133 26.8356C16.2134 27.8957 16.2551 28.0636 16.4552 28.3463C16.9305 29 16.8721 29 21.5 29C26.1362 29 26.0695 29 26.5448 28.3463C26.7532 28.0636 26.7866 27.8957 26.8867 26.8533C27.0618 25.0422 27.4954 23.7878 28.446 22.2948C28.988 21.4467 29.53 20.2187 29.7634 19.3264C30.0219 18.3282 30.0803 16.3405 29.8802 15.298C29.1881 11.7113 26.7449 9.04333 23.3345 8.18641C22.8091 8.05389 20.9246 7.94788 20.4994 8.02739ZM23.3762 9.29069C25.761 9.95326 27.7372 11.8615 28.5794 14.2997C28.9212 15.298 29.038 16.1726 28.9796 17.4447C28.9129 19.1056 28.571 20.148 27.5454 21.8089C26.4864 23.5404 26.0278 24.9362 25.8777 26.9063C25.8277 27.5512 25.7943 27.7014 25.6442 27.8074C25.3774 28.0017 17.6226 28.0017 17.3558 27.8074C17.2057 27.7014 17.1723 27.5512 17.1223 26.9063C16.9722 24.9362 16.5136 23.5404 15.4546 21.8089C14.429 20.148 14.0871 19.1056 14.0204 17.4447C13.962 16.1726 14.0788 15.298 14.4206 14.2997C15.3295 11.6583 17.4392 9.75891 20.1325 9.16701C20.933 8.99033 22.509 9.05217 23.3762 9.29069Z" fill="white"/>
<path d="M19.111 11.1795C17.968 11.7062 17.057 12.5 16.5156 13.4421C15.8796 14.5326 15.8366 15 16.3609 15C16.6101 15 16.6875 14.9036 16.8765 14.3843C17.0914 13.7834 17.5555 13.1528 18.1656 12.6187C18.6039 12.2404 18.9477 12.0252 19.8415 11.595C20.0048 11.5134 20.0563 11.2389 19.9274 11.0979C19.7727 10.9496 19.5837 10.9644 19.111 11.1795Z" fill="white"/>
<path d="M15.1336 16.12C14.8337 16.39 15.078 17 15.4779 17C15.8112 17 16 16.82 16 16.5C16 16.19 15.8112 16 15.5001 16C15.3668 16 15.2113 16.05 15.1336 16.12Z" fill="white"/>
<path d="M17.1607 30.1379C16.9521 30.3103 16.9437 30.6276 17.1524 30.8345L17.3109 31H21.5H25.6891L25.8476 30.8345C26.0563 30.6276 26.0479 30.3103 25.8393 30.1379C25.6807 30.0069 25.5639 30 21.5 30C17.4361 30 17.3193 30.0069 17.1607 30.1379Z" fill="white"/>
<path d="M18.1365 32.1586C17.9612 32.3586 17.9547 32.6207 18.117 32.8345L18.2404 33H21.4991H24.7578L24.8811 32.8345C25.0499 32.6138 25.0369 32.331 24.8552 32.1517C24.7059 32 24.6994 32 21.4926 32H18.2728L18.1365 32.1586Z" fill="white"/>
<path d="M19.2262 34.2167C19.7919 34.75 20.5271 35 21.5 35C22.4729 35 23.2081 34.75 23.7738 34.2167L24 34H21.5H19L19.2262 34.2167Z" fill="white"/>
</svg>
