<svg width="64" height="64" viewBox="0 0 64 64" fill="none" xmlns="http://www.w3.org/2000/svg">
<rect width="64" height="64" fill="#FDD989"/>
<path d="M30.0285 14.0378C28.2382 14.3428 27.1346 14.6722 25.9206 15.2822C22.389 17.039 19.9733 20.1865 19.1762 24.0782C18.8819 25.5178 18.9678 28.2627 19.3479 29.6413C19.6912 30.8735 20.4883 32.5692 21.2854 33.7404C22.6955 35.8022 23.3087 37.5101 23.5784 40.0111C23.7256 41.475 23.7869 41.7068 24.0812 42.0972C24.7802 43 24.6943 43 31.5 43C38.3179 43 38.2198 43 38.9188 42.0972C39.2254 41.7068 39.2744 41.475 39.4216 40.0355C39.6791 37.5345 40.3167 35.8022 41.7146 33.7404C42.5117 32.5692 43.3088 30.8735 43.6521 29.6413C44.0322 28.2627 44.1181 25.5178 43.8238 24.0782C42.806 19.1251 39.2131 15.4408 34.1977 14.2574C33.4252 14.0744 30.6539 13.928 30.0285 14.0378ZM34.2591 15.7824C37.7661 16.6974 40.6723 19.3325 41.9108 22.6996C42.4136 24.0782 42.5853 25.286 42.4994 27.0427C42.4013 29.3363 41.8986 30.7759 40.3903 33.0694C38.833 35.4606 38.1585 37.3881 37.9378 40.1087C37.8642 40.9992 37.8152 41.2066 37.5944 41.353C37.202 41.6214 25.798 41.6214 25.4056 41.353C25.1848 41.2066 25.1358 40.9992 25.0622 40.1087C24.8415 37.3881 24.167 35.4606 22.6097 33.0694C21.1014 30.7759 20.5987 29.3363 20.5006 27.0427C20.4147 25.286 20.5864 24.0782 21.0892 22.6996C22.4258 19.0519 25.5282 16.429 29.489 15.6116C30.6662 15.3676 32.9838 15.453 34.2591 15.7824Z" fill="white" stroke="white"/>
<path d="M28.6665 18.2693C26.952 19.0593 25.5855 20.25 24.7734 21.6632C23.8194 23.299 23.755 24 24.5413 24C24.9152 24 25.0312 23.8553 25.3148 23.0764C25.6371 22.1751 26.3332 21.2292 27.2485 20.428C27.9059 19.8605 28.4216 19.5378 29.7622 18.8924C30.0072 18.77 30.0845 18.3583 29.8912 18.1469C29.6591 17.9243 29.3755 17.9466 28.6665 18.2693Z" fill="white" stroke="white"/>
<path d="M23.1336 26.12C22.8337 26.39 23.078 27 23.4779 27C23.8112 27 24 26.82 24 26.5C24 26.19 23.8112 26 23.5001 26C23.3668 26 23.2113 26.05 23.1336 26.12Z" fill="white" stroke="white"/>
<path d="M26.1964 45.2759C25.9414 45.6207 25.9312 46.2552 26.1862 46.669L26.38 47H31.5H36.62L36.8138 46.669C37.0688 46.2552 37.0586 45.6207 36.8036 45.2759C36.6098 45.0138 36.467 45 31.5 45C26.533 45 26.3902 45.0138 26.1964 45.2759Z" fill="white"/>
<path d="M27.1755 48.3172C26.9502 48.7172 26.9418 49.2414 27.1505 49.669L27.309 50H31.4988H35.6886L35.8472 49.669C36.0642 49.2276 36.0475 48.6621 35.8138 48.3034C35.6218 48 35.6135 48 31.4905 48H27.3508L27.1755 48.3172Z" fill="white"/>
<path d="M29.2262 51.4333C29.7919 52.5 30.5271 53 31.5 53C32.4729 53 33.2081 52.5 33.7738 51.4333L34 51H31.5H29L29.2262 51.4333Z" fill="white"/>
</svg>
